<svg xmlns="http://www.w3.org/2000/svg" xmlns:xlink="http://www.w3.org/1999/xlink" width="500" zoomAndPan="magnify" viewBox="0 0 375 374.999991" height="500" preserveAspectRatio="xMidYMid meet" version="1.2"><defs><clipPath id="e2db802fd5"><path d="M 28.101562 28.101562 L 346.851562 28.101562 L 346.851562 346.851562 L 28.101562 346.851562 Z M 28.101562 28.101562 "/></clipPath><clipPath id="b26442ae0a"><path d="M 70.121094 98.292969 L 304.871094 98.292969 L 304.871094 241 L 70.121094 241 Z M 70.121094 98.292969 "/></clipPath><clipPath id="1965a34e3a"><path d="M 128 194 L 167 194 L 167 276.792969 L 128 276.792969 Z M 128 194 "/></clipPath><clipPath id="201b61adc9"><path d="M 145 218 L 203 218 L 203 276.792969 L 145 276.792969 Z M 145 218 "/></clipPath></defs><g id="190804fec5"><path style=" stroke:none;fill-rule:nonzero;fill:#003c25;fill-opacity:1;" d="M 187.5 375 C 83.910156 375 0 290.507812 0 187.5 C 0 84.492188 83.910156 0 187.5 0 C 291.089844 0 375 83.910156 375 187.5 C 375 291.089844 290.507812 375 187.5 375 Z M 187.5 11.574219 C 90.277344 11.574219 11.574219 90.277344 11.574219 187.5 C 11.574219 284.722656 90.277344 363.425781 187.5 363.425781 C 284.722656 363.425781 363.425781 284.722656 363.425781 187.5 C 363.425781 90.277344 284.144531 11.574219 187.5 11.574219 Z M 187.5 11.574219 "/><g clip-rule="nonzero" clip-path="url(#e2db802fd5)"><path style=" stroke:none;fill-rule:nonzero;fill:#003c25;fill-opacity:1;" d="M 346.847656 187.472656 C 346.847656 190.082031 346.78125 192.6875 346.652344 195.292969 C 346.527344 197.898438 346.335938 200.5 346.078125 203.09375 C 345.824219 205.691406 345.503906 208.277344 345.121094 210.859375 C 344.738281 213.4375 344.292969 216.007812 343.785156 218.566406 C 343.273438 221.125 342.703125 223.667969 342.070312 226.199219 C 341.4375 228.726562 340.742188 231.242188 339.984375 233.738281 C 339.226562 236.234375 338.410156 238.707031 337.53125 241.164062 C 336.652344 243.621094 335.710938 246.054688 334.714844 248.460938 C 333.714844 250.871094 332.660156 253.257812 331.542969 255.613281 C 330.429688 257.972656 329.257812 260.300781 328.027344 262.601562 C 326.796875 264.902344 325.511719 267.171875 324.171875 269.40625 C 322.832031 271.644531 321.4375 273.847656 319.988281 276.015625 C 318.539062 278.183594 317.035156 280.316406 315.484375 282.410156 C 313.929688 284.507812 312.324219 286.5625 310.671875 288.578125 C 309.015625 290.59375 307.3125 292.570312 305.5625 294.5 C 303.808594 296.433594 302.011719 298.324219 300.167969 300.167969 C 298.324219 302.011719 296.433594 303.808594 294.5 305.5625 C 292.570312 307.3125 290.59375 309.015625 288.578125 310.671875 C 286.5625 312.324219 284.507812 313.929688 282.410156 315.484375 C 280.316406 317.035156 278.183594 318.539062 276.015625 319.988281 C 273.847656 321.4375 271.644531 322.832031 269.40625 324.171875 C 267.171875 325.511719 264.902344 326.796875 262.601562 328.027344 C 260.300781 329.257812 257.972656 330.429688 255.613281 331.542969 C 253.257812 332.660156 250.871094 333.714844 248.460938 334.714844 C 246.054688 335.710938 243.621094 336.652344 241.164062 337.53125 C 238.707031 338.410156 236.234375 339.226562 233.738281 339.984375 C 231.242188 340.742188 228.726562 341.4375 226.199219 342.070312 C 223.667969 342.703125 221.125 343.273438 218.566406 343.785156 C 216.007812 344.292969 213.4375 344.738281 210.859375 345.121094 C 208.277344 345.503906 205.691406 345.824219 203.09375 346.078125 C 200.5 346.335938 197.898438 346.527344 195.292969 346.652344 C 192.6875 346.78125 190.082031 346.847656 187.472656 346.847656 C 184.863281 346.847656 182.257812 346.78125 179.652344 346.652344 C 177.046875 346.527344 174.449219 346.335938 171.851562 346.078125 C 169.257812 345.824219 166.667969 345.503906 164.089844 345.121094 C 161.507812 344.738281 158.9375 344.292969 156.382812 343.785156 C 153.824219 343.273438 151.277344 342.703125 148.75 342.070312 C 146.21875 341.4375 143.707031 340.742188 141.210938 339.984375 C 138.714844 339.226562 136.238281 338.410156 133.78125 337.53125 C 131.328125 336.652344 128.894531 335.710938 126.484375 334.714844 C 124.074219 333.714844 121.691406 332.660156 119.332031 331.542969 C 116.976562 330.429688 114.644531 329.257812 112.34375 328.027344 C 110.046875 326.796875 107.777344 325.511719 105.539062 324.171875 C 103.300781 322.832031 101.097656 321.4375 98.929688 319.988281 C 96.761719 318.539062 94.628906 317.035156 92.535156 315.484375 C 90.441406 313.929688 88.382812 312.324219 86.367188 310.671875 C 84.351562 309.015625 82.378906 307.3125 80.445312 305.5625 C 78.511719 303.808594 76.625 302.011719 74.78125 300.167969 C 72.9375 298.324219 71.136719 296.433594 69.386719 294.5 C 67.632812 292.570312 65.929688 290.59375 64.277344 288.578125 C 62.621094 286.5625 61.019531 284.507812 59.464844 282.410156 C 57.910156 280.316406 56.410156 278.183594 54.960938 276.015625 C 53.511719 273.847656 52.117188 271.644531 50.773438 269.40625 C 49.433594 267.171875 48.148438 264.902344 46.917969 262.601562 C 45.691406 260.300781 44.515625 257.972656 43.402344 255.613281 C 42.285156 253.257812 41.230469 250.871094 40.230469 248.460938 C 39.234375 246.054688 38.296875 243.621094 37.417969 241.164062 C 36.539062 238.707031 35.71875 236.234375 34.964844 233.738281 C 34.207031 231.242188 33.511719 228.726562 32.875 226.199219 C 32.242188 223.667969 31.671875 221.125 31.164062 218.566406 C 30.652344 216.007812 30.207031 213.4375 29.824219 210.859375 C 29.441406 208.277344 29.125 205.691406 28.867188 203.09375 C 28.613281 200.5 28.421875 197.898438 28.292969 195.292969 C 28.164062 192.6875 28.101562 190.082031 28.101562 187.472656 C 28.101562 184.863281 28.164062 182.257812 28.292969 179.652344 C 28.421875 177.046875 28.613281 174.449219 28.867188 171.851562 C 29.125 169.257812 29.441406 166.667969 29.824219 164.089844 C 30.207031 161.507812 30.652344 158.9375 31.164062 156.382812 C 31.671875 153.824219 32.242188 151.277344 32.875 148.75 C 33.511719 146.21875 34.207031 143.707031 34.964844 141.210938 C 35.71875 138.714844 36.539062 136.238281 37.417969 133.78125 C 38.296875 131.328125 39.234375 128.894531 40.230469 126.484375 C 41.230469 124.074219 42.285156 121.691406 43.402344 119.332031 C 44.515625 116.976562 45.691406 114.644531 46.917969 112.34375 C 48.148438 110.046875 49.433594 107.777344 50.773438 105.539062 C 52.117188 103.300781 53.511719 101.097656 54.960938 98.929688 C 56.410156 96.761719 57.910156 94.628906 59.464844 92.535156 C 61.019531 90.441406 62.621094 88.382812 64.277344 86.367188 C 65.929688 84.351562 67.632812 82.378906 69.386719 80.445312 C 71.136719 78.511719 72.9375 76.625 74.78125 74.78125 C 76.625 72.9375 78.511719 71.136719 80.445312 69.386719 C 82.378906 67.632812 84.351562 65.929688 86.367188 64.277344 C 88.382812 62.621094 90.441406 61.019531 92.535156 59.464844 C 94.628906 57.910156 96.761719 56.410156 98.929688 54.960938 C 101.097656 53.511719 103.300781 52.117188 105.539062 50.773438 C 107.777344 49.433594 110.046875 48.148438 112.34375 46.917969 C 114.644531 45.691406 116.976562 44.515625 119.332031 43.402344 C 121.691406 42.285156 124.074219 41.230469 126.484375 40.230469 C 128.894531 39.234375 131.328125 38.296875 133.78125 37.417969 C 136.238281 36.539062 138.714844 35.71875 141.210938 34.964844 C 143.707031 34.207031 146.21875 33.511719 148.75 32.875 C 151.277344 32.242188 153.824219 31.671875 156.382812 31.164062 C 158.9375 30.652344 161.507812 30.207031 164.089844 29.824219 C 166.667969 29.441406 169.257812 29.125 171.851562 28.867188 C 174.449219 28.613281 177.046875 28.421875 179.652344 28.292969 C 182.257812 28.164062 184.863281 28.101562 187.472656 28.101562 C 190.082031 28.101562 192.6875 28.164062 195.292969 28.292969 C 197.898438 28.421875 200.5 28.613281 203.09375 28.867188 C 205.691406 29.125 208.277344 29.441406 210.859375 29.824219 C 213.4375 30.207031 216.007812 30.652344 218.566406 31.164062 C 221.125 31.671875 223.667969 32.242188 226.199219 32.875 C 228.726562 33.511719 231.242188 34.207031 233.738281 34.964844 C 236.234375 35.71875 238.707031 36.539062 241.164062 37.417969 C 243.621094 38.296875 246.054688 39.234375 248.460938 40.230469 C 250.871094 41.230469 253.257812 42.285156 255.613281 43.402344 C 257.972656 44.515625 260.300781 45.691406 262.601562 46.917969 C 264.902344 48.148438 267.171875 49.433594 269.40625 50.773438 C 271.644531 52.117188 273.847656 53.511719 276.015625 54.960938 C 278.183594 56.410156 280.316406 57.910156 282.410156 59.464844 C 284.507812 61.019531 286.5625 62.621094 288.578125 64.277344 C 290.59375 65.929688 292.570312 67.632812 294.5 69.386719 C 296.433594 71.136719 298.324219 72.9375 300.167969 74.78125 C 302.011719 76.625 303.808594 78.511719 305.5625 80.445312 C 307.3125 82.378906 309.015625 84.351562 310.671875 86.367188 C 312.324219 88.382812 313.929688 90.441406 315.484375 92.535156 C 317.035156 94.628906 318.539062 96.761719 319.988281 98.929688 C 321.4375 101.097656 322.832031 103.300781 324.171875 105.539062 C 325.511719 107.777344 326.796875 110.046875 328.027344 112.34375 C 329.257812 114.644531 330.429688 116.976562 331.542969 119.332031 C 332.660156 121.691406 333.714844 124.074219 334.714844 126.484375 C 335.710938 128.894531 336.652344 131.328125 337.53125 133.78125 C 338.410156 136.238281 339.226562 138.714844 339.984375 141.210938 C 340.742188 143.707031 341.4375 146.21875 342.070312 148.75 C 342.703125 151.277344 343.273438 153.824219 343.785156 156.382812 C 344.292969 158.9375 344.738281 161.507812 345.121094 164.089844 C 345.503906 166.667969 345.824219 169.257812 346.078125 171.851562 C 346.335938 174.449219 346.527344 177.046875 346.652344 179.652344 C 346.78125 182.257812 346.847656 184.863281 346.847656 187.472656 Z M 346.847656 187.472656 "/></g><g clip-rule="nonzero" clip-path="url(#b26442ae0a)"><path style=" stroke:none;fill-rule:nonzero;fill:#ffffff;fill-opacity:1;" d="M 247.660156 240.101562 C 247.394531 240.097656 247.136719 240.050781 246.886719 239.960938 L 163.457031 210.546875 C 163.03125 210.414062 162.671875 210.179688 162.378906 209.839844 C 162.089844 209.503906 161.910156 209.113281 161.839844 208.671875 C 161.769531 208.234375 161.820312 207.808594 161.992188 207.394531 C 162.167969 206.984375 162.433594 206.648438 162.800781 206.390625 L 276.886719 118.101562 L 131.90625 198.433594 C 131.226562 198.761719 130.542969 198.761719 129.863281 198.433594 L 71.550781 174.089844 C 71.085938 173.894531 70.71875 173.582031 70.457031 173.148438 C 70.191406 172.714844 70.082031 172.246094 70.121094 171.742188 C 70.144531 171.246094 70.308594 170.800781 70.613281 170.410156 C 70.917969 170.019531 71.3125 169.75 71.785156 169.605469 L 301.839844 99.039062 C 302.242188 98.921875 302.640625 98.921875 303.039062 99.039062 C 303.570312 99.179688 304 99.46875 304.332031 99.910156 C 304.386719 100 304.449219 100.085938 304.519531 100.167969 C 304.734375 100.5625 304.828125 100.984375 304.800781 101.433594 C 304.820312 101.597656 304.820312 101.761719 304.800781 101.929688 C 304.808594 102.023438 304.808594 102.117188 304.800781 102.210938 L 249.84375 238.621094 C 249.667969 239.070312 249.378906 239.429688 248.980469 239.699219 C 248.582031 239.96875 248.140625 240.101562 247.660156 240.101562 Z M 169.089844 207.566406 L 246.324219 234.773438 L 297.125 108.476562 Z M 79.34375 172.351562 L 130.613281 193.855469 L 281.675781 110.144531 Z M 79.34375 172.351562 "/></g><g clip-rule="nonzero" clip-path="url(#1965a34e3a)"><path style=" stroke:none;fill-rule:nonzero;fill:#ffffff;fill-opacity:1;" d="M 148.175781 276.230469 C 147.902344 276.238281 147.636719 276.195312 147.378906 276.113281 C 147.125 276.027344 146.886719 275.902344 146.671875 275.734375 C 146.460938 275.566406 146.28125 275.367188 146.132812 275.140625 C 145.988281 274.910156 145.886719 274.664062 145.828125 274.398438 L 128.480469 197 C 128.421875 196.703125 128.421875 196.402344 128.480469 196.105469 C 128.539062 195.804688 128.652344 195.527344 128.820312 195.273438 C 128.984375 195.015625 129.195312 194.800781 129.445312 194.628906 C 129.695312 194.453125 129.96875 194.332031 130.265625 194.265625 C 130.566406 194.199219 130.863281 194.191406 131.164062 194.242188 C 131.464844 194.289062 131.746094 194.394531 132.007812 194.554688 C 132.265625 194.710938 132.488281 194.914062 132.667969 195.160156 C 132.851562 195.402344 132.980469 195.671875 133.054688 195.96875 L 148.269531 263.742188 L 161.953125 207.894531 C 162.027344 207.59375 162.160156 207.316406 162.34375 207.066406 C 162.527344 206.816406 162.753906 206.609375 163.019531 206.449219 C 163.285156 206.289062 163.574219 206.183594 163.878906 206.136719 C 164.1875 206.09375 164.492188 206.105469 164.792969 206.179688 C 165.097656 206.253906 165.371094 206.386719 165.621094 206.570312 C 165.875 206.753906 166.078125 206.980469 166.238281 207.246094 C 166.398438 207.511719 166.503906 207.800781 166.550781 208.105469 C 166.597656 208.414062 166.582031 208.71875 166.507812 209.019531 L 150.453125 274.46875 C 150.386719 274.722656 150.28125 274.957031 150.140625 275.175781 C 149.996094 275.390625 149.820312 275.578125 149.613281 275.738281 C 149.410156 275.898438 149.183594 276.019531 148.933594 276.105469 C 148.6875 276.1875 148.433594 276.230469 148.175781 276.230469 Z M 148.175781 276.230469 "/></g><g clip-rule="nonzero" clip-path="url(#201b61adc9)"><path style=" stroke:none;fill-rule:nonzero;fill:#ffffff;fill-opacity:1;" d="M 148.175781 276.230469 C 147.523438 276.234375 146.96875 276.007812 146.507812 275.550781 C 146.289062 275.328125 146.121094 275.074219 146.003906 274.789062 C 145.882812 274.503906 145.824219 274.203125 145.824219 273.894531 C 145.824219 273.582031 145.882812 273.285156 146.003906 273 C 146.121094 272.710938 146.289062 272.457031 146.507812 272.238281 L 198.785156 219.445312 C 199.007812 219.222656 199.261719 219.050781 199.550781 218.929688 C 199.839844 218.808594 200.140625 218.75 200.453125 218.75 C 200.765625 218.75 201.066406 218.808594 201.355469 218.929688 C 201.644531 219.050781 201.898438 219.222656 202.121094 219.445312 C 202.339844 219.664062 202.507812 219.917969 202.625 220.203125 C 202.742188 220.492188 202.800781 220.789062 202.800781 221.097656 C 202.800781 221.410156 202.742188 221.707031 202.625 221.992188 C 202.507812 222.28125 202.339844 222.535156 202.121094 222.753906 L 149.933594 275.550781 C 149.449219 276.035156 148.859375 276.261719 148.175781 276.230469 Z M 148.175781 276.230469 "/></g></g></svg>