<svg xmlns="http://www.w3.org/2000/svg" xmlns:xlink="http://www.w3.org/1999/xlink" width="500" zoomAndPan="magnify" viewBox="0 0 375 374.999991" height="500" preserveAspectRatio="xMidYMid meet" version="1.2"><defs><clipPath id="64a326e876"><path d="M 0 104.160156 L 166.5 104.160156 L 166.5 270.660156 L 0 270.660156 Z M 0 104.160156 "/></clipPath><clipPath id="73ced1b4ed"><path d="M 94.511719 130.179688 L 375 130.179688 L 375 245.679688 L 94.511719 245.679688 Z M 94.511719 130.179688 "/></clipPath><clipPath id="484d08a858"><path d="M 94.511719 152.679688 L 94.511719 223.445312 C 94.511719 235.871094 104.585938 245.945312 117.011719 245.945312 L 352.5 245.945312 C 364.925781 245.945312 375 235.871094 375 223.445312 L 375 152.679688 C 375 140.253906 364.925781 130.179688 352.5 130.179688 L 117.011719 130.179688 C 104.585938 130.179688 94.511719 140.253906 94.511719 152.679688 Z M 94.511719 152.679688 "/></clipPath><clipPath id="ac6f3a9dec"><path d="M 121.929688 137.191406 L 366.429688 137.191406 L 366.429688 238.441406 L 121.929688 238.441406 Z M 121.929688 137.191406 "/></clipPath><clipPath id="5970120403"><path d="M 12.488281 116.652344 L 154.238281 116.652344 L 154.238281 258.402344 L 12.488281 258.402344 Z M 12.488281 116.652344 "/></clipPath><clipPath id="43e2f4d722"><path d="M 132.589844 143.246094 L 357.589844 143.246094 L 357.589844 229.496094 L 132.589844 229.496094 Z M 132.589844 143.246094 "/></clipPath><clipPath id="1501358fb2"><path d="M 114.023438 138 L 151.523438 138 L 151.523438 229.25 L 114.023438 229.25 Z M 114.023438 138 "/></clipPath><clipPath id="60f02334a0"><path d="M 35.449219 151.667969 L 131.449219 151.667969 L 131.449219 210 L 35.449219 210 Z M 35.449219 151.667969 "/></clipPath><clipPath id="542e932ca2"><path d="M 59 190 L 75 190 L 75 224.417969 L 59 224.417969 Z M 59 190 "/></clipPath><clipPath id="f6dc46d260"><path d="M 66 200 L 90 200 L 90 224.417969 L 66 224.417969 Z M 66 200 "/></clipPath></defs><g id="9506c93fb5"><g clip-rule="nonzero" clip-path="url(#64a326e876)"><path style=" stroke:none;fill-rule:nonzero;fill:#003c25;fill-opacity:1;" d="M 83.25 270.660156 C 37.257812 270.660156 0 233.148438 0 187.410156 C 0 141.675781 37.257812 104.160156 83.25 104.160156 C 129.242188 104.160156 166.5 141.417969 166.5 187.410156 C 166.5 233.40625 128.984375 270.660156 83.25 270.660156 Z M 83.25 109.300781 C 40.082031 109.300781 5.140625 144.246094 5.140625 187.410156 C 5.140625 230.578125 40.082031 265.523438 83.25 265.523438 C 126.417969 265.523438 161.359375 230.578125 161.359375 187.410156 C 161.359375 144.246094 126.160156 109.300781 83.25 109.300781 Z M 83.25 109.300781 "/></g><g clip-rule="nonzero" clip-path="url(#73ced1b4ed)"><g clip-rule="nonzero" clip-path="url(#484d08a858)"><path style=" stroke:none;fill-rule:nonzero;fill:#ffffff;fill-opacity:1;" d="M 114.40625 130.265625 L 354.480469 130.265625 C 355.132812 130.265625 355.78125 130.300781 356.429688 130.363281 C 357.078125 130.425781 357.722656 130.523438 358.363281 130.648438 C 359 130.777344 359.632812 130.933594 360.253906 131.125 C 360.878906 131.3125 361.492188 131.53125 362.09375 131.78125 C 362.695312 132.03125 363.285156 132.308594 363.859375 132.617188 C 364.433594 132.921875 364.992188 133.257812 365.53125 133.621094 C 366.074219 133.980469 366.597656 134.371094 367.101562 134.78125 C 367.605469 135.195312 368.085938 135.632812 368.546875 136.09375 C 369.007812 136.554688 369.445312 137.035156 369.859375 137.539062 C 370.273438 138.042969 370.660156 138.566406 371.023438 139.109375 C 371.382812 139.652344 371.71875 140.207031 372.023438 140.785156 C 372.332031 141.359375 372.609375 141.945312 372.859375 142.546875 C 373.109375 143.148438 373.328125 143.761719 373.519531 144.386719 C 373.707031 145.011719 373.863281 145.640625 373.992188 146.28125 C 374.121094 146.917969 374.214844 147.5625 374.277344 148.210938 C 374.34375 148.859375 374.375 149.511719 374.375 150.160156 L 374.375 225.699219 C 374.375 226.351562 374.34375 227 374.277344 227.648438 C 374.214844 228.296875 374.121094 228.941406 373.992188 229.578125 C 373.863281 230.21875 373.707031 230.851562 373.519531 231.472656 C 373.328125 232.097656 373.109375 232.710938 372.859375 233.3125 C 372.609375 233.914062 372.332031 234.503906 372.023438 235.078125 C 371.71875 235.652344 371.382812 236.210938 371.023438 236.75 C 370.660156 237.292969 370.273438 237.816406 369.859375 238.320312 C 369.445312 238.824219 369.007812 239.304688 368.546875 239.765625 C 368.085938 240.226562 367.605469 240.664062 367.101562 241.078125 C 366.597656 241.492188 366.074219 241.878906 365.53125 242.242188 C 364.992188 242.601562 364.433594 242.9375 363.859375 243.242188 C 363.285156 243.550781 362.695312 243.828125 362.09375 244.078125 C 361.492188 244.328125 360.878906 244.546875 360.253906 244.738281 C 359.632812 244.925781 359 245.082031 358.363281 245.210938 C 357.722656 245.339844 357.078125 245.433594 356.429688 245.496094 C 355.78125 245.5625 355.132812 245.59375 354.480469 245.59375 L 114.40625 245.59375 C 113.753906 245.59375 113.105469 245.5625 112.457031 245.496094 C 111.808594 245.433594 111.164062 245.339844 110.523438 245.210938 C 109.886719 245.082031 109.253906 244.925781 108.628906 244.738281 C 108.007812 244.546875 107.394531 244.328125 106.792969 244.078125 C 106.191406 243.828125 105.601562 243.550781 105.027344 243.242188 C 104.453125 242.9375 103.894531 242.601562 103.351562 242.242188 C 102.8125 241.878906 102.289062 241.492188 101.785156 241.078125 C 101.28125 240.664062 100.796875 240.226562 100.335938 239.765625 C 99.878906 239.304688 99.441406 238.824219 99.027344 238.320312 C 98.613281 237.816406 98.226562 237.292969 97.863281 236.75 C 97.5 236.210938 97.167969 235.652344 96.859375 235.078125 C 96.554688 234.503906 96.273438 233.914062 96.023438 233.3125 C 95.777344 232.710938 95.558594 232.097656 95.367188 231.472656 C 95.179688 230.851562 95.019531 230.21875 94.894531 229.578125 C 94.765625 228.941406 94.671875 228.296875 94.605469 227.648438 C 94.542969 227 94.511719 226.351562 94.511719 225.699219 L 94.511719 150.160156 C 94.511719 149.511719 94.542969 148.859375 94.605469 148.210938 C 94.671875 147.5625 94.765625 146.917969 94.894531 146.28125 C 95.019531 145.640625 95.179688 145.011719 95.367188 144.386719 C 95.558594 143.761719 95.777344 143.148438 96.023438 142.546875 C 96.273438 141.945312 96.554688 141.359375 96.859375 140.785156 C 97.167969 140.207031 97.5 139.652344 97.863281 139.109375 C 98.226562 138.566406 98.613281 138.042969 99.027344 137.539062 C 99.441406 137.035156 99.878906 136.554688 100.335938 136.09375 C 100.796875 135.632812 101.28125 135.195312 101.785156 134.78125 C 102.289062 134.371094 102.8125 133.980469 103.351562 133.621094 C 103.894531 133.257812 104.453125 132.921875 105.027344 132.617188 C 105.601562 132.308594 106.191406 132.03125 106.792969 131.78125 C 107.394531 131.53125 108.007812 131.3125 108.628906 131.125 C 109.253906 130.933594 109.886719 130.777344 110.523438 130.648438 C 111.164062 130.523438 111.808594 130.425781 112.457031 130.363281 C 113.105469 130.300781 113.753906 130.265625 114.40625 130.265625 Z M 114.40625 130.265625 "/></g></g><g clip-rule="nonzero" clip-path="url(#ac6f3a9dec)"><path style=" stroke:none;fill-rule:nonzero;fill:#003c25;fill-opacity:1;" d="M 139.308594 137.265625 L 349.046875 137.265625 C 349.617188 137.265625 350.183594 137.296875 350.75 137.351562 C 351.316406 137.40625 351.878906 137.488281 352.4375 137.601562 C 352.996094 137.710938 353.546875 137.851562 354.09375 138.015625 C 354.636719 138.179688 355.171875 138.371094 355.699219 138.589844 C 356.226562 138.808594 356.738281 139.050781 357.242188 139.320312 C 357.742188 139.585938 358.230469 139.878906 358.703125 140.195312 C 359.175781 140.511719 359.632812 140.851562 360.074219 141.210938 C 360.511719 141.574219 360.933594 141.957031 361.335938 142.359375 C 361.738281 142.761719 362.121094 143.183594 362.484375 143.621094 C 362.84375 144.0625 363.183594 144.519531 363.5 144.992188 C 363.816406 145.464844 364.105469 145.953125 364.375 146.453125 C 364.644531 146.957031 364.886719 147.46875 365.105469 147.996094 C 365.324219 148.523438 365.515625 149.058594 365.679688 149.601562 C 365.84375 150.148438 365.984375 150.699219 366.09375 151.257812 C 366.203125 151.816406 366.289062 152.378906 366.34375 152.945312 C 366.398438 153.511719 366.429688 154.078125 366.429688 154.648438 L 366.429688 220.640625 C 366.429688 221.210938 366.398438 221.777344 366.34375 222.34375 C 366.289062 222.910156 366.203125 223.472656 366.09375 224.03125 C 365.984375 224.589844 365.84375 225.140625 365.679688 225.683594 C 365.515625 226.230469 365.324219 226.765625 365.105469 227.292969 C 364.886719 227.816406 364.644531 228.332031 364.375 228.832031 C 364.105469 229.335938 363.816406 229.824219 363.5 230.296875 C 363.183594 230.769531 362.84375 231.226562 362.484375 231.667969 C 362.121094 232.105469 361.738281 232.527344 361.335938 232.929688 C 360.933594 233.332031 360.511719 233.714844 360.074219 234.074219 C 359.632812 234.4375 359.175781 234.773438 358.703125 235.089844 C 358.230469 235.40625 357.742188 235.699219 357.242188 235.96875 C 356.738281 236.238281 356.226562 236.480469 355.699219 236.699219 C 355.171875 236.914062 354.636719 237.105469 354.09375 237.273438 C 353.546875 237.4375 352.996094 237.574219 352.4375 237.6875 C 351.878906 237.796875 351.316406 237.882812 350.75 237.9375 C 350.183594 237.992188 349.617188 238.019531 349.046875 238.019531 L 139.308594 238.019531 C 138.738281 238.019531 138.171875 237.992188 137.605469 237.9375 C 137.039062 237.882812 136.476562 237.796875 135.917969 237.6875 C 135.359375 237.574219 134.808594 237.4375 134.261719 237.273438 C 133.71875 237.105469 133.183594 236.914062 132.65625 236.699219 C 132.132812 236.480469 131.617188 236.238281 131.117188 235.96875 C 130.613281 235.699219 130.125 235.40625 129.652344 235.089844 C 129.179688 234.773438 128.722656 234.4375 128.28125 234.074219 C 127.84375 233.714844 127.421875 233.332031 127.019531 232.929688 C 126.617188 232.527344 126.234375 232.105469 125.875 231.667969 C 125.511719 231.226562 125.171875 230.769531 124.855469 230.296875 C 124.539062 229.824219 124.25 229.335938 123.980469 228.832031 C 123.710938 228.332031 123.46875 227.816406 123.25 227.292969 C 123.03125 226.765625 122.839844 226.230469 122.675781 225.683594 C 122.511719 225.140625 122.371094 224.589844 122.261719 224.03125 C 122.152344 223.472656 122.066406 222.910156 122.011719 222.34375 C 121.957031 221.777344 121.929688 221.210938 121.929688 220.640625 L 121.929688 154.648438 C 121.929688 154.078125 121.957031 153.511719 122.011719 152.945312 C 122.066406 152.378906 122.152344 151.816406 122.261719 151.257812 C 122.371094 150.699219 122.511719 150.148438 122.675781 149.601562 C 122.839844 149.058594 123.03125 148.523438 123.25 147.996094 C 123.46875 147.46875 123.710938 146.957031 123.980469 146.453125 C 124.25 145.953125 124.539062 145.464844 124.855469 144.992188 C 125.171875 144.519531 125.511719 144.0625 125.875 143.621094 C 126.234375 143.183594 126.617188 142.761719 127.019531 142.359375 C 127.421875 141.957031 127.84375 141.574219 128.28125 141.210938 C 128.722656 140.851562 129.179688 140.511719 129.652344 140.195312 C 130.125 139.878906 130.613281 139.585938 131.117188 139.320312 C 131.617188 139.050781 132.132812 138.808594 132.65625 138.589844 C 133.183594 138.371094 133.71875 138.179688 134.261719 138.015625 C 134.808594 137.851562 135.359375 137.710938 135.917969 137.601562 C 136.476562 137.488281 137.039062 137.40625 137.605469 137.351562 C 138.171875 137.296875 138.738281 137.265625 139.308594 137.265625 Z M 139.308594 137.265625 "/></g><g clip-rule="nonzero" clip-path="url(#5970120403)"><path style=" stroke:none;fill-rule:nonzero;fill:#003c25;fill-opacity:1;" d="M 154.179688 187.496094 C 154.179688 188.65625 154.152344 189.8125 154.09375 190.972656 C 154.035156 192.128906 153.953125 193.285156 153.839844 194.441406 C 153.722656 195.59375 153.582031 196.746094 153.414062 197.890625 C 153.242188 199.039062 153.042969 200.179688 152.816406 201.316406 C 152.589844 202.453125 152.335938 203.585938 152.054688 204.710938 C 151.773438 205.835938 151.464844 206.953125 151.128906 208.0625 C 150.792969 209.171875 150.429688 210.269531 150.039062 211.363281 C 149.648438 212.453125 149.230469 213.535156 148.785156 214.605469 C 148.34375 215.679688 147.875 216.738281 147.378906 217.785156 C 146.882812 218.835938 146.359375 219.871094 145.8125 220.890625 C 145.265625 221.914062 144.695312 222.921875 144.101562 223.917969 C 143.503906 224.914062 142.882812 225.890625 142.238281 226.855469 C 141.59375 227.820312 140.929688 228.765625 140.238281 229.699219 C 139.546875 230.628906 138.832031 231.542969 138.097656 232.441406 C 137.363281 233.335938 136.605469 234.214844 135.828125 235.074219 C 135.046875 235.933594 134.25 236.769531 133.429688 237.589844 C 132.609375 238.410156 131.769531 239.210938 130.910156 239.988281 C 130.050781 240.765625 129.175781 241.523438 128.277344 242.261719 C 127.382812 242.996094 126.46875 243.707031 125.535156 244.398438 C 124.605469 245.089844 123.65625 245.757812 122.695312 246.402344 C 121.730469 247.046875 120.75 247.664062 119.757812 248.261719 C 118.761719 248.859375 117.753906 249.429688 116.730469 249.976562 C 115.707031 250.523438 114.671875 251.042969 113.625 251.539062 C 112.578125 252.035156 111.515625 252.503906 110.445312 252.949219 C 109.375 253.390625 108.292969 253.808594 107.203125 254.199219 C 106.109375 254.589844 105.007812 254.953125 103.898438 255.289062 C 102.789062 255.625 101.671875 255.9375 100.546875 256.21875 C 99.421875 256.5 98.292969 256.753906 97.15625 256.980469 C 96.019531 257.207031 94.875 257.402344 93.730469 257.574219 C 92.582031 257.746094 91.433594 257.886719 90.277344 258 C 89.125 258.113281 87.96875 258.199219 86.8125 258.253906 C 85.652344 258.3125 84.492188 258.339844 83.335938 258.339844 C 82.175781 258.339844 81.015625 258.3125 79.859375 258.253906 C 78.699219 258.199219 77.542969 258.113281 76.390625 258 C 75.238281 257.886719 74.085938 257.746094 72.941406 257.574219 C 71.792969 257.402344 70.652344 257.207031 69.511719 256.980469 C 68.375 256.753906 67.246094 256.5 66.121094 256.21875 C 64.996094 255.9375 63.878906 255.625 62.769531 255.289062 C 61.660156 254.953125 60.558594 254.589844 59.46875 254.199219 C 58.375 253.808594 57.292969 253.390625 56.222656 252.949219 C 55.152344 252.503906 54.09375 252.035156 53.042969 251.539062 C 51.996094 251.042969 50.960938 250.523438 49.9375 249.976562 C 48.917969 249.429688 47.90625 248.859375 46.914062 248.261719 C 45.917969 247.664062 44.941406 247.046875 43.976562 246.402344 C 43.011719 245.757812 42.0625 245.089844 41.132812 244.398438 C 40.203125 243.707031 39.289062 242.996094 38.390625 242.261719 C 37.496094 241.523438 36.617188 240.765625 35.757812 239.988281 C 34.898438 239.210938 34.058594 238.410156 33.238281 237.589844 C 32.421875 236.769531 31.621094 235.933594 30.84375 235.074219 C 30.0625 234.214844 29.304688 233.335938 28.570312 232.441406 C 27.835938 231.542969 27.121094 230.628906 26.433594 229.699219 C 25.742188 228.765625 25.074219 227.820312 24.429688 226.855469 C 23.785156 225.890625 23.164062 224.914062 22.570312 223.917969 C 21.972656 222.921875 21.402344 221.914062 20.855469 220.890625 C 20.308594 219.871094 19.789062 218.835938 19.292969 217.785156 C 18.796875 216.738281 18.328125 215.679688 17.882812 214.605469 C 17.4375 213.535156 17.023438 212.453125 16.632812 211.363281 C 16.242188 210.269531 15.878906 209.171875 15.539062 208.0625 C 15.203125 206.953125 14.894531 205.835938 14.613281 204.710938 C 14.332031 203.585938 14.078125 202.453125 13.851562 201.316406 C 13.625 200.179688 13.425781 199.039062 13.257812 197.890625 C 13.085938 196.746094 12.945312 195.59375 12.832031 194.441406 C 12.71875 193.285156 12.632812 192.128906 12.574219 190.972656 C 12.519531 189.8125 12.488281 188.65625 12.488281 187.496094 C 12.488281 186.335938 12.519531 185.179688 12.574219 184.019531 C 12.632812 182.863281 12.71875 181.707031 12.832031 180.550781 C 12.945312 179.398438 13.085938 178.246094 13.257812 177.101562 C 13.425781 175.953125 13.625 174.8125 13.851562 173.675781 C 14.078125 172.539062 14.332031 171.40625 14.613281 170.28125 C 14.894531 169.15625 15.203125 168.039062 15.539062 166.929688 C 15.878906 165.820312 16.242188 164.722656 16.632812 163.628906 C 17.023438 162.539062 17.4375 161.457031 17.882812 160.386719 C 18.328125 159.3125 18.796875 158.253906 19.292969 157.207031 C 19.789062 156.15625 20.308594 155.121094 20.855469 154.101562 C 21.402344 153.078125 21.972656 152.070312 22.570312 151.074219 C 23.164062 150.082031 23.785156 149.101562 24.429688 148.136719 C 25.074219 147.171875 25.742188 146.226562 26.433594 145.292969 C 27.121094 144.363281 27.835938 143.449219 28.570312 142.554688 C 29.304688 141.65625 30.0625 140.777344 30.84375 139.917969 C 31.621094 139.0625 32.421875 138.222656 33.238281 137.402344 C 34.058594 136.582031 34.898438 135.78125 35.757812 135.003906 C 36.617188 134.226562 37.496094 133.46875 38.390625 132.734375 C 39.289062 131.996094 40.203125 131.285156 41.132812 130.59375 C 42.0625 129.902344 43.011719 129.234375 43.976562 128.589844 C 44.941406 127.945312 45.917969 127.328125 46.914062 126.730469 C 47.90625 126.132812 48.917969 125.5625 49.9375 125.015625 C 50.960938 124.46875 51.996094 123.949219 53.042969 123.453125 C 54.09375 122.957031 55.152344 122.488281 56.222656 122.042969 C 57.292969 121.601562 58.375 121.183594 59.46875 120.792969 C 60.558594 120.402344 61.660156 120.039062 62.769531 119.703125 C 63.878906 119.367188 64.996094 119.054688 66.121094 118.773438 C 67.246094 118.492188 68.375 118.238281 69.511719 118.011719 C 70.652344 117.785156 71.792969 117.589844 72.941406 117.417969 C 74.085938 117.25 75.238281 117.105469 76.390625 116.992188 C 77.542969 116.878906 78.699219 116.792969 79.859375 116.738281 C 81.015625 116.679688 82.175781 116.652344 83.335938 116.652344 C 84.492188 116.652344 85.652344 116.679688 86.8125 116.738281 C 87.96875 116.792969 89.125 116.878906 90.277344 116.992188 C 91.433594 117.105469 92.582031 117.25 93.730469 117.417969 C 94.875 117.589844 96.019531 117.785156 97.15625 118.011719 C 98.292969 118.238281 99.421875 118.492188 100.546875 118.773438 C 101.671875 119.054688 102.789062 119.367188 103.898438 119.703125 C 105.007812 120.039062 106.109375 120.402344 107.203125 120.792969 C 108.292969 121.183594 109.375 121.601562 110.445312 122.042969 C 111.515625 122.488281 112.578125 122.957031 113.625 123.453125 C 114.671875 123.949219 115.707031 124.46875 116.730469 125.015625 C 117.753906 125.5625 118.761719 126.132812 119.757812 126.730469 C 120.75 127.328125 121.730469 127.945312 122.695312 128.589844 C 123.65625 129.234375 124.605469 129.902344 125.535156 130.59375 C 126.46875 131.285156 127.382812 131.996094 128.277344 132.734375 C 129.175781 133.46875 130.050781 134.226562 130.910156 135.003906 C 131.769531 135.78125 132.609375 136.582031 133.429688 137.402344 C 134.25 138.222656 135.046875 139.0625 135.828125 139.917969 C 136.605469 140.777344 137.363281 141.65625 138.097656 142.554688 C 138.832031 143.449219 139.546875 144.363281 140.238281 145.292969 C 140.929688 146.226562 141.59375 147.171875 142.238281 148.136719 C 142.882812 149.101562 143.503906 150.082031 144.101562 151.074219 C 144.695312 152.070312 145.265625 153.078125 145.8125 154.101562 C 146.359375 155.121094 146.882812 156.15625 147.378906 157.207031 C 147.875 158.253906 148.34375 159.3125 148.785156 160.386719 C 149.230469 161.457031 149.648438 162.539062 150.039062 163.628906 C 150.429688 164.722656 150.792969 165.820312 151.128906 166.929688 C 151.464844 168.039062 151.773438 169.15625 152.054688 170.28125 C 152.335938 171.40625 152.589844 172.539062 152.816406 173.675781 C 153.042969 174.8125 153.242188 175.953125 153.414062 177.101562 C 153.582031 178.25 153.722656 179.398438 153.839844 180.550781 C 153.953125 181.707031 154.035156 182.863281 154.09375 184.019531 C 154.152344 185.179688 154.179688 186.335938 154.179688 187.496094 Z M 154.179688 187.496094 "/></g><g clip-rule="nonzero" clip-path="url(#43e2f4d722)"><path style=" stroke:none;fill-rule:nonzero;fill:#ffffff;fill-opacity:1;" d="M 334.957031 143.246094 L 155.082031 143.246094 C 142.828125 143.246094 132.878906 153.191406 132.878906 165.445312 L 132.878906 207.046875 C 132.878906 219.300781 142.828125 229.25 155.082031 229.25 L 334.910156 229.25 C 347.164062 229.25 357.113281 219.300781 357.113281 207.046875 L 357.113281 165.445312 C 357.160156 153.191406 347.210938 143.246094 334.957031 143.246094 Z M 355.257812 207.046875 C 355.257812 218.261719 346.125 227.351562 334.957031 227.351562 L 155.082031 227.351562 C 143.867188 227.351562 134.777344 218.214844 134.777344 207.046875 L 134.777344 165.445312 C 134.777344 154.234375 143.914062 145.144531 155.082031 145.144531 L 334.910156 145.144531 C 346.125 145.144531 355.214844 154.277344 355.214844 165.445312 L 355.214844 207.046875 Z M 355.257812 207.046875 "/></g><g clip-rule="nonzero" clip-path="url(#1501358fb2)"><path style=" stroke:none;fill-rule:nonzero;fill:#003c25;fill-opacity:1;" d="M 114.050781 222.789062 L 114.050781 144.847656 C 114.050781 144.425781 114.09375 144.003906 114.175781 143.589844 C 114.257812 143.171875 114.382812 142.769531 114.542969 142.375 C 114.707031 141.984375 114.90625 141.613281 115.140625 141.261719 C 115.375 140.90625 115.644531 140.582031 115.945312 140.28125 C 116.242188 139.980469 116.570312 139.714844 116.921875 139.476562 C 117.273438 139.242188 117.648438 139.042969 118.039062 138.882812 C 118.429688 138.71875 118.835938 138.597656 119.25 138.515625 C 119.667969 138.429688 120.085938 138.390625 120.511719 138.390625 L 145.035156 138.390625 C 145.457031 138.390625 145.878906 138.429688 146.292969 138.515625 C 146.710938 138.597656 147.113281 138.71875 147.507812 138.882812 C 147.898438 139.042969 148.269531 139.242188 148.621094 139.476562 C 148.976562 139.714844 149.300781 139.980469 149.601562 140.28125 C 149.902344 140.582031 150.167969 140.90625 150.40625 141.261719 C 150.640625 141.613281 150.839844 141.984375 151 142.375 C 151.164062 142.769531 151.285156 143.171875 151.367188 143.589844 C 151.453125 144.003906 151.492188 144.425781 151.492188 144.847656 L 151.492188 222.789062 C 151.492188 223.214844 151.453125 223.636719 151.367188 224.050781 C 151.285156 224.46875 151.164062 224.871094 151 225.261719 C 150.839844 225.65625 150.640625 226.027344 150.40625 226.378906 C 150.167969 226.730469 149.902344 227.058594 149.601562 227.359375 C 149.300781 227.65625 148.976562 227.925781 148.621094 228.160156 C 148.269531 228.398438 147.898438 228.597656 147.507812 228.757812 C 147.113281 228.921875 146.710938 229.042969 146.292969 229.125 C 145.878906 229.207031 145.457031 229.25 145.035156 229.25 L 120.511719 229.25 C 120.085938 229.25 119.667969 229.207031 119.25 229.125 C 118.835938 229.042969 118.429688 228.921875 118.039062 228.757812 C 117.648438 228.597656 117.273438 228.398438 116.921875 228.160156 C 116.570312 227.925781 116.242188 227.65625 115.945312 227.359375 C 115.644531 227.058594 115.375 226.730469 115.140625 226.378906 C 114.90625 226.027344 114.707031 225.65625 114.542969 225.261719 C 114.382812 224.871094 114.257812 224.46875 114.175781 224.050781 C 114.09375 223.636719 114.050781 223.214844 114.050781 222.789062 Z M 114.050781 222.789062 "/></g><g style="fill:#ffffff;fill-opacity:1;"><g transform="translate(149.411537, 179.344713)"><path style="stroke:none" d="M 11.1875 0 L 7.296875 -7.0625 L 6.203125 -7.0625 L 6.203125 0 L 1.65625 0 L 1.65625 -18.6875 L 9.296875 -18.6875 C 10.765625 -18.6875 12.015625 -18.425781 13.046875 -17.90625 C 14.085938 -17.394531 14.863281 -16.691406 15.375 -15.796875 C 15.894531 -14.898438 16.15625 -13.90625 16.15625 -12.8125 C 16.15625 -11.5625 15.804688 -10.445312 15.109375 -9.46875 C 14.410156 -8.5 13.378906 -7.8125 12.015625 -7.40625 L 16.328125 0 Z M 6.203125 -10.28125 L 9.03125 -10.28125 C 9.863281 -10.28125 10.488281 -10.484375 10.90625 -10.890625 C 11.320312 -11.296875 11.53125 -11.875 11.53125 -12.625 C 11.53125 -13.332031 11.320312 -13.890625 10.90625 -14.296875 C 10.488281 -14.703125 9.863281 -14.90625 9.03125 -14.90625 L 6.203125 -14.90625 Z M 6.203125 -10.28125 "/></g></g><g style="fill:#ffffff;fill-opacity:1;"><g transform="translate(167.193247, 179.344713)"><path style="stroke:none" d="M 10.484375 0.1875 C 8.734375 0.1875 7.125 -0.21875 5.65625 -1.03125 C 4.195312 -1.851562 3.035156 -2.992188 2.171875 -4.453125 C 1.304688 -5.921875 0.875 -7.570312 0.875 -9.40625 C 0.875 -11.226562 1.304688 -12.863281 2.171875 -14.3125 C 3.035156 -15.769531 4.195312 -16.90625 5.65625 -17.71875 C 7.125 -18.539062 8.734375 -18.953125 10.484375 -18.953125 C 12.242188 -18.953125 13.851562 -18.539062 15.3125 -17.71875 C 16.78125 -16.90625 17.9375 -15.769531 18.78125 -14.3125 C 19.625 -12.863281 20.046875 -11.226562 20.046875 -9.40625 C 20.046875 -7.570312 19.617188 -5.921875 18.765625 -4.453125 C 17.921875 -2.992188 16.769531 -1.851562 15.3125 -1.03125 C 13.851562 -0.21875 12.242188 0.1875 10.484375 0.1875 Z M 10.484375 -3.96875 C 11.984375 -3.96875 13.179688 -4.460938 14.078125 -5.453125 C 14.972656 -6.453125 15.421875 -7.769531 15.421875 -9.40625 C 15.421875 -11.050781 14.972656 -12.363281 14.078125 -13.34375 C 13.179688 -14.332031 11.984375 -14.828125 10.484375 -14.828125 C 8.984375 -14.828125 7.78125 -14.335938 6.875 -13.359375 C 5.976562 -12.390625 5.53125 -11.070312 5.53125 -9.40625 C 5.53125 -7.75 5.976562 -6.425781 6.875 -5.4375 C 7.78125 -4.457031 8.984375 -3.96875 10.484375 -3.96875 Z M 10.484375 -3.96875 "/></g></g><g style="fill:#ffffff;fill-opacity:1;"><g transform="translate(188.541928, 179.344713)"><path style="stroke:none" d="M 6.125 -18.6875 L 6.125 -7.515625 C 6.125 -6.390625 6.398438 -5.523438 6.953125 -4.921875 C 7.503906 -4.316406 8.3125 -4.015625 9.375 -4.015625 C 10.4375 -4.015625 11.25 -4.316406 11.8125 -4.921875 C 12.382812 -5.523438 12.671875 -6.390625 12.671875 -7.515625 L 12.671875 -18.6875 L 17.21875 -18.6875 L 17.21875 -7.53125 C 17.21875 -5.863281 16.863281 -4.453125 16.15625 -3.296875 C 15.445312 -2.148438 14.492188 -1.28125 13.296875 -0.6875 C 12.097656 -0.101562 10.765625 0.1875 9.296875 0.1875 C 7.816406 0.1875 6.492188 -0.0976562 5.328125 -0.671875 C 4.171875 -1.253906 3.253906 -2.125 2.578125 -3.28125 C 1.910156 -4.445312 1.578125 -5.863281 1.578125 -7.53125 L 1.578125 -18.6875 Z M 6.125 -18.6875 "/></g></g><g style="fill:#ffffff;fill-opacity:1;"><g transform="translate(207.734453, 179.344713)"><path style="stroke:none" d="M 15.09375 -18.6875 L 15.09375 -15.046875 L 10.140625 -15.046875 L 10.140625 0 L 5.59375 0 L 5.59375 -15.046875 L 0.640625 -15.046875 L 0.640625 -18.6875 Z M 15.09375 -18.6875 "/></g></g><g style="fill:#ffffff;fill-opacity:1;"><g transform="translate(223.892387, 179.344713)"><path style="stroke:none" d="M 6.203125 -15.046875 L 6.203125 -11.265625 L 12.296875 -11.265625 L 12.296875 -7.75 L 6.203125 -7.75 L 6.203125 -3.640625 L 13.09375 -3.640625 L 13.09375 0 L 1.65625 0 L 1.65625 -18.6875 L 13.09375 -18.6875 L 13.09375 -15.046875 Z M 6.203125 -15.046875 "/></g></g><g style="fill:#ffffff;fill-opacity:1;"><g transform="translate(238.719363, 179.344713)"><path style="stroke:none" d=""/></g></g><g style="fill:#ffffff;fill-opacity:1;"><g transform="translate(244.788607, 179.344713)"><path style="stroke:none" d="M 8.40625 0.1875 C 7.039062 0.1875 5.816406 -0.03125 4.734375 -0.46875 C 3.648438 -0.914062 2.785156 -1.570312 2.140625 -2.4375 C 1.492188 -3.3125 1.15625 -4.363281 1.125 -5.59375 L 5.96875 -5.59375 C 6.039062 -4.894531 6.28125 -4.363281 6.6875 -4 C 7.09375 -3.644531 7.625 -3.46875 8.28125 -3.46875 C 8.957031 -3.46875 9.488281 -3.617188 9.875 -3.921875 C 10.269531 -4.234375 10.46875 -4.664062 10.46875 -5.21875 C 10.46875 -5.675781 10.3125 -6.054688 10 -6.359375 C 9.6875 -6.660156 9.300781 -6.910156 8.84375 -7.109375 C 8.394531 -7.304688 7.753906 -7.53125 6.921875 -7.78125 C 5.710938 -8.144531 4.726562 -8.515625 3.96875 -8.890625 C 3.207031 -9.265625 2.550781 -9.816406 2 -10.546875 C 1.445312 -11.273438 1.171875 -12.222656 1.171875 -13.390625 C 1.171875 -15.128906 1.800781 -16.488281 3.0625 -17.46875 C 4.320312 -18.457031 5.960938 -18.953125 7.984375 -18.953125 C 10.046875 -18.953125 11.707031 -18.457031 12.96875 -17.46875 C 14.226562 -16.488281 14.898438 -15.117188 14.984375 -13.359375 L 10.0625 -13.359375 C 10.03125 -13.960938 9.804688 -14.4375 9.390625 -14.78125 C 8.984375 -15.132812 8.460938 -15.3125 7.828125 -15.3125 C 7.273438 -15.3125 6.828125 -15.164062 6.484375 -14.875 C 6.148438 -14.582031 5.984375 -14.160156 5.984375 -13.609375 C 5.984375 -13.003906 6.265625 -12.53125 6.828125 -12.1875 C 7.398438 -11.851562 8.289062 -11.492188 9.5 -11.109375 C 10.707031 -10.691406 11.6875 -10.296875 12.4375 -9.921875 C 13.195312 -9.554688 13.851562 -9.015625 14.40625 -8.296875 C 14.957031 -7.585938 15.234375 -6.675781 15.234375 -5.5625 C 15.234375 -4.5 14.960938 -3.53125 14.421875 -2.65625 C 13.878906 -1.789062 13.09375 -1.097656 12.0625 -0.578125 C 11.03125 -0.0664062 9.8125 0.1875 8.40625 0.1875 Z M 8.40625 0.1875 "/></g></g><g style="fill:#ffffff;fill-opacity:1;"><g transform="translate(261.585397, 179.344713)"><path style="stroke:none" d="M 15.09375 -18.6875 L 15.09375 -15.046875 L 10.140625 -15.046875 L 10.140625 0 L 5.59375 0 L 5.59375 -15.046875 L 0.640625 -15.046875 L 0.640625 -18.6875 Z M 15.09375 -18.6875 "/></g></g><g style="fill:#ffffff;fill-opacity:1;"><g transform="translate(277.743331, 179.344713)"><path style="stroke:none" d="M 13.28125 -3.296875 L 6.3125 -3.296875 L 5.1875 0 L 0.421875 0 L 7.1875 -18.6875 L 12.453125 -18.6875 L 19.21875 0 L 14.40625 0 Z M 12.109375 -6.8125 L 9.796875 -13.65625 L 7.515625 -6.8125 Z M 12.109375 -6.8125 "/></g></g><g style="fill:#ffffff;fill-opacity:1;"><g transform="translate(297.787672, 179.344713)"><path style="stroke:none" d="M 22.8125 -18.6875 L 22.8125 0 L 18.265625 0 L 18.265625 -11.203125 L 14.078125 0 L 10.40625 0 L 6.203125 -11.234375 L 6.203125 0 L 1.65625 0 L 1.65625 -18.6875 L 7.03125 -18.6875 L 12.28125 -5.75 L 17.46875 -18.6875 Z M 22.8125 -18.6875 "/></g></g><g style="fill:#ffffff;fill-opacity:1;"><g transform="translate(322.650088, 179.344713)"><path style="stroke:none" d="M 15.890625 -12.671875 C 15.890625 -11.585938 15.640625 -10.597656 15.140625 -9.703125 C 14.648438 -8.804688 13.890625 -8.082031 12.859375 -7.53125 C 11.828125 -6.976562 10.550781 -6.703125 9.03125 -6.703125 L 6.203125 -6.703125 L 6.203125 0 L 1.65625 0 L 1.65625 -18.6875 L 9.03125 -18.6875 C 10.519531 -18.6875 11.773438 -18.425781 12.796875 -17.90625 C 13.828125 -17.394531 14.597656 -16.6875 15.109375 -15.78125 C 15.628906 -14.882812 15.890625 -13.847656 15.890625 -12.671875 Z M 8.6875 -10.328125 C 9.550781 -10.328125 10.195312 -10.53125 10.625 -10.9375 C 11.050781 -11.351562 11.265625 -11.929688 11.265625 -12.671875 C 11.265625 -13.421875 11.050781 -14 10.625 -14.40625 C 10.195312 -14.8125 9.550781 -15.015625 8.6875 -15.015625 L 6.203125 -15.015625 L 6.203125 -10.328125 Z M 8.6875 -10.328125 "/></g></g><g style="fill:#ffffff;fill-opacity:1;"><g transform="translate(149.459124, 207.667332)"><path style="stroke:none" d="M 6.859375 -9.453125 L 6.859375 -8.453125 L 4.28125 -8.453125 L 4.28125 0 L 3.046875 0 L 3.046875 -8.453125 L 0.46875 -8.453125 L 0.46875 -9.453125 Z M 6.859375 -9.453125 "/></g></g><g style="fill:#ffffff;fill-opacity:1;"><g transform="translate(157.006119, 207.667332)"><path style="stroke:none" d="M 6.015625 0 L 3.765625 -3.859375 L 2.28125 -3.859375 L 2.28125 0 L 1.046875 0 L 1.046875 -9.453125 L 4.09375 -9.453125 C 4.8125 -9.453125 5.414062 -9.328125 5.90625 -9.078125 C 6.394531 -8.835938 6.757812 -8.507812 7 -8.09375 C 7.25 -7.675781 7.375 -7.203125 7.375 -6.671875 C 7.375 -6.023438 7.1875 -5.453125 6.8125 -4.953125 C 6.4375 -4.453125 5.875 -4.117188 5.125 -3.953125 L 7.5 0 Z M 2.28125 -4.859375 L 4.09375 -4.859375 C 4.757812 -4.859375 5.257812 -5.019531 5.59375 -5.34375 C 5.9375 -5.675781 6.109375 -6.117188 6.109375 -6.671875 C 6.109375 -7.234375 5.941406 -7.664062 5.609375 -7.96875 C 5.273438 -8.28125 4.769531 -8.4375 4.09375 -8.4375 L 2.28125 -8.4375 Z M 2.28125 -4.859375 "/></g></g><g style="fill:#ffffff;fill-opacity:1;"><g transform="translate(165.460901, 207.667332)"><path style="stroke:none" d="M 6.625 -2.109375 L 2.515625 -2.109375 L 1.75 0 L 0.453125 0 L 3.859375 -9.40625 L 5.296875 -9.40625 L 8.6875 0 L 7.390625 0 Z M 6.28125 -3.109375 L 4.578125 -7.875 L 2.859375 -3.109375 Z M 6.28125 -3.109375 "/></g></g><g style="fill:#ffffff;fill-opacity:1;"><g transform="translate(174.809912, 207.667332)"><path style="stroke:none" d="M 8.859375 -9.453125 L 5.296875 0 L 3.859375 0 L 0.296875 -9.453125 L 1.609375 -9.453125 L 4.578125 -1.296875 L 7.546875 -9.453125 Z M 8.859375 -9.453125 "/></g></g><g style="fill:#ffffff;fill-opacity:1;"><g transform="translate(184.186029, 207.667332)"><path style="stroke:none" d="M 2.28125 -8.453125 L 2.28125 -5.296875 L 5.71875 -5.296875 L 5.71875 -4.265625 L 2.28125 -4.265625 L 2.28125 -1.015625 L 6.125 -1.015625 L 6.125 0 L 1.046875 0 L 1.046875 -9.46875 L 6.125 -9.46875 L 6.125 -8.453125 Z M 2.28125 -8.453125 "/></g></g><g style="fill:#ffffff;fill-opacity:1;"><g transform="translate(191.353654, 207.667332)"><path style="stroke:none" d="M 2.28125 -1 L 5.59375 -1 L 5.59375 0 L 1.046875 0 L 1.046875 -9.453125 L 2.28125 -9.453125 Z M 2.28125 -1 "/></g></g><g style="fill:#ffffff;fill-opacity:1;"><g transform="translate(197.423813, 207.667332)"><path style="stroke:none" d=""/></g></g><g style="fill:#ffffff;fill-opacity:1;"><g transform="translate(201.258388, 207.667332)"><path style="stroke:none" d="M 2.78125 -2.859375 C 2.320312 -2.859375 1.929688 -3.019531 1.609375 -3.34375 C 1.285156 -3.664062 1.125 -4.054688 1.125 -4.515625 C 1.125 -4.984375 1.285156 -5.378906 1.609375 -5.703125 C 1.929688 -6.023438 2.320312 -6.1875 2.78125 -6.1875 C 3.25 -6.1875 3.644531 -6.023438 3.96875 -5.703125 C 4.300781 -5.378906 4.46875 -4.984375 4.46875 -4.515625 C 4.46875 -4.054688 4.300781 -3.664062 3.96875 -3.34375 C 3.644531 -3.019531 3.25 -2.859375 2.78125 -2.859375 Z M 2.78125 -2.859375 "/></g></g><g style="fill:#ffffff;fill-opacity:1;"><g transform="translate(207.057565, 207.667332)"><path style="stroke:none" d=""/></g></g><g style="fill:#ffffff;fill-opacity:1;"><g transform="translate(210.892139, 207.667332)"><path style="stroke:none" d="M 6.859375 -9.453125 L 6.859375 -8.453125 L 4.28125 -8.453125 L 4.28125 0 L 3.046875 0 L 3.046875 -8.453125 L 0.46875 -8.453125 L 0.46875 -9.453125 Z M 6.859375 -9.453125 "/></g></g><g style="fill:#ffffff;fill-opacity:1;"><g transform="translate(218.439134, 207.667332)"><path style="stroke:none" d="M 6.015625 0 L 3.765625 -3.859375 L 2.28125 -3.859375 L 2.28125 0 L 1.046875 0 L 1.046875 -9.453125 L 4.09375 -9.453125 C 4.8125 -9.453125 5.414062 -9.328125 5.90625 -9.078125 C 6.394531 -8.835938 6.757812 -8.507812 7 -8.09375 C 7.25 -7.675781 7.375 -7.203125 7.375 -6.671875 C 7.375 -6.023438 7.1875 -5.453125 6.8125 -4.953125 C 6.4375 -4.453125 5.875 -4.117188 5.125 -3.953125 L 7.5 0 Z M 2.28125 -4.859375 L 4.09375 -4.859375 C 4.757812 -4.859375 5.257812 -5.019531 5.59375 -5.34375 C 5.9375 -5.675781 6.109375 -6.117188 6.109375 -6.671875 C 6.109375 -7.234375 5.941406 -7.664062 5.609375 -7.96875 C 5.273438 -8.28125 4.769531 -8.4375 4.09375 -8.4375 L 2.28125 -8.4375 Z M 2.28125 -4.859375 "/></g></g><g style="fill:#ffffff;fill-opacity:1;"><g transform="translate(226.893916, 207.667332)"><path style="stroke:none" d="M 6.625 -2.109375 L 2.515625 -2.109375 L 1.75 0 L 0.453125 0 L 3.859375 -9.40625 L 5.296875 -9.40625 L 8.6875 0 L 7.390625 0 Z M 6.28125 -3.109375 L 4.578125 -7.875 L 2.859375 -3.109375 Z M 6.28125 -3.109375 "/></g></g><g style="fill:#ffffff;fill-opacity:1;"><g transform="translate(236.242928, 207.667332)"><path style="stroke:none" d="M 0.578125 -4.734375 C 0.578125 -5.648438 0.785156 -6.476562 1.203125 -7.21875 C 1.617188 -7.957031 2.1875 -8.535156 2.90625 -8.953125 C 3.625 -9.367188 4.421875 -9.578125 5.296875 -9.578125 C 6.328125 -9.578125 7.226562 -9.328125 8 -8.828125 C 8.769531 -8.328125 9.332031 -7.625 9.6875 -6.71875 L 8.203125 -6.71875 C 7.941406 -7.28125 7.5625 -7.710938 7.0625 -8.015625 C 6.570312 -8.328125 5.984375 -8.484375 5.296875 -8.484375 C 4.640625 -8.484375 4.046875 -8.328125 3.515625 -8.015625 C 2.992188 -7.710938 2.582031 -7.28125 2.28125 -6.71875 C 1.988281 -6.15625 1.84375 -5.492188 1.84375 -4.734375 C 1.84375 -3.984375 1.988281 -3.320312 2.28125 -2.75 C 2.582031 -2.1875 2.992188 -1.75 3.515625 -1.4375 C 4.046875 -1.132812 4.640625 -0.984375 5.296875 -0.984375 C 5.984375 -0.984375 6.570312 -1.132812 7.0625 -1.4375 C 7.5625 -1.75 7.941406 -2.1875 8.203125 -2.75 L 9.6875 -2.75 C 9.332031 -1.84375 8.769531 -1.144531 8 -0.65625 C 7.226562 -0.164062 6.328125 0.078125 5.296875 0.078125 C 4.421875 0.078125 3.625 -0.125 2.90625 -0.53125 C 2.1875 -0.945312 1.617188 -1.519531 1.203125 -2.25 C 0.785156 -2.976562 0.578125 -3.804688 0.578125 -4.734375 Z M 0.578125 -4.734375 "/></g></g><g style="fill:#ffffff;fill-opacity:1;"><g transform="translate(246.919747, 207.667332)"><path style="stroke:none" d="M 6.171875 0 L 2.28125 -4.3125 L 2.28125 0 L 1.046875 0 L 1.046875 -9.453125 L 2.28125 -9.453125 L 2.28125 -5.078125 L 6.1875 -9.453125 L 7.75 -9.453125 L 3.453125 -4.71875 L 7.78125 0 Z M 6.171875 0 "/></g></g><g style="fill:#ffffff;fill-opacity:1;"><g transform="translate(255.252585, 207.667332)"><path style="stroke:none" d=""/></g></g><g style="fill:#ffffff;fill-opacity:1;"><g transform="translate(259.08716, 207.667332)"><path style="stroke:none" d="M 2.78125 -2.859375 C 2.320312 -2.859375 1.929688 -3.019531 1.609375 -3.34375 C 1.285156 -3.664062 1.125 -4.054688 1.125 -4.515625 C 1.125 -4.984375 1.285156 -5.378906 1.609375 -5.703125 C 1.929688 -6.023438 2.320312 -6.1875 2.78125 -6.1875 C 3.25 -6.1875 3.644531 -6.023438 3.96875 -5.703125 C 4.300781 -5.378906 4.46875 -4.984375 4.46875 -4.515625 C 4.46875 -4.054688 4.300781 -3.664062 3.96875 -3.34375 C 3.644531 -3.019531 3.25 -2.859375 2.78125 -2.859375 Z M 2.78125 -2.859375 "/></g></g><g style="fill:#ffffff;fill-opacity:1;"><g transform="translate(264.886336, 207.667332)"><path style="stroke:none" d=""/></g></g><g style="fill:#ffffff;fill-opacity:1;"><g transform="translate(268.720911, 207.667332)"><path style="stroke:none" d="M 6.015625 0 L 3.765625 -3.859375 L 2.28125 -3.859375 L 2.28125 0 L 1.046875 0 L 1.046875 -9.453125 L 4.09375 -9.453125 C 4.8125 -9.453125 5.414062 -9.328125 5.90625 -9.078125 C 6.394531 -8.835938 6.757812 -8.507812 7 -8.09375 C 7.25 -7.675781 7.375 -7.203125 7.375 -6.671875 C 7.375 -6.023438 7.1875 -5.453125 6.8125 -4.953125 C 6.4375 -4.453125 5.875 -4.117188 5.125 -3.953125 L 7.5 0 Z M 2.28125 -4.859375 L 4.09375 -4.859375 C 4.757812 -4.859375 5.257812 -5.019531 5.59375 -5.34375 C 5.9375 -5.675781 6.109375 -6.117188 6.109375 -6.671875 C 6.109375 -7.234375 5.941406 -7.664062 5.609375 -7.96875 C 5.273438 -8.28125 4.769531 -8.4375 4.09375 -8.4375 L 2.28125 -8.4375 Z M 2.28125 -4.859375 "/></g></g><g style="fill:#ffffff;fill-opacity:1;"><g transform="translate(277.175693, 207.667332)"><path style="stroke:none" d="M 2.28125 -8.453125 L 2.28125 -5.296875 L 5.71875 -5.296875 L 5.71875 -4.265625 L 2.28125 -4.265625 L 2.28125 -1.015625 L 6.125 -1.015625 L 6.125 0 L 1.046875 0 L 1.046875 -9.46875 L 6.125 -9.46875 L 6.125 -8.453125 Z M 2.28125 -8.453125 "/></g></g><g style="fill:#ffffff;fill-opacity:1;"><g transform="translate(284.343319, 207.667332)"><path style="stroke:none" d="M 10.640625 -9.390625 L 10.640625 0 L 9.40625 0 L 9.40625 -7 L 6.28125 0 L 5.40625 0 L 2.28125 -7.015625 L 2.28125 0 L 1.046875 0 L 1.046875 -9.390625 L 2.375 -9.390625 L 5.84375 -1.625 L 9.3125 -9.390625 Z M 10.640625 -9.390625 "/></g></g><g style="fill:#ffffff;fill-opacity:1;"><g transform="translate(296.225992, 207.667332)"><path style="stroke:none" d="M 2.28125 -8.453125 L 2.28125 -5.296875 L 5.71875 -5.296875 L 5.71875 -4.265625 L 2.28125 -4.265625 L 2.28125 -1.015625 L 6.125 -1.015625 L 6.125 0 L 1.046875 0 L 1.046875 -9.46875 L 6.125 -9.46875 L 6.125 -8.453125 Z M 2.28125 -8.453125 "/></g></g><g style="fill:#ffffff;fill-opacity:1;"><g transform="translate(303.393617, 207.667332)"><path style="stroke:none" d="M 10.640625 -9.390625 L 10.640625 0 L 9.40625 0 L 9.40625 -7 L 6.28125 0 L 5.40625 0 L 2.28125 -7.015625 L 2.28125 0 L 1.046875 0 L 1.046875 -9.390625 L 2.375 -9.390625 L 5.84375 -1.625 L 9.3125 -9.390625 Z M 10.640625 -9.390625 "/></g></g><g style="fill:#ffffff;fill-opacity:1;"><g transform="translate(315.27629, 207.667332)"><path style="stroke:none" d="M 5.78125 -4.875 C 6.125 -4.8125 6.4375 -4.664062 6.71875 -4.4375 C 7 -4.21875 7.222656 -3.941406 7.390625 -3.609375 C 7.566406 -3.273438 7.65625 -2.914062 7.65625 -2.53125 C 7.65625 -2.050781 7.53125 -1.617188 7.28125 -1.234375 C 7.039062 -0.859375 6.6875 -0.554688 6.21875 -0.328125 C 5.75 -0.109375 5.203125 0 4.578125 0 L 1.046875 0 L 1.046875 -9.453125 L 4.4375 -9.453125 C 5.070312 -9.453125 5.613281 -9.34375 6.0625 -9.125 C 6.519531 -8.914062 6.863281 -8.628906 7.09375 -8.265625 C 7.320312 -7.910156 7.4375 -7.503906 7.4375 -7.046875 C 7.4375 -6.492188 7.285156 -6.03125 6.984375 -5.65625 C 6.679688 -5.289062 6.28125 -5.03125 5.78125 -4.875 Z M 2.28125 -5.375 L 4.359375 -5.375 C 4.929688 -5.375 5.375 -5.507812 5.6875 -5.78125 C 6.007812 -6.050781 6.171875 -6.425781 6.171875 -6.90625 C 6.171875 -7.382812 6.007812 -7.757812 5.6875 -8.03125 C 5.375 -8.300781 4.921875 -8.4375 4.328125 -8.4375 L 2.28125 -8.4375 Z M 4.46875 -1.015625 C 5.082031 -1.015625 5.5625 -1.160156 5.90625 -1.453125 C 6.25 -1.742188 6.421875 -2.144531 6.421875 -2.65625 C 6.421875 -3.175781 6.238281 -3.585938 5.875 -3.890625 C 5.507812 -4.203125 5.023438 -4.359375 4.421875 -4.359375 L 2.28125 -4.359375 L 2.28125 -1.015625 Z M 4.46875 -1.015625 "/></g></g><g style="fill:#ffffff;fill-opacity:1;"><g transform="translate(323.798818, 207.667332)"><path style="stroke:none" d="M 2.28125 -8.453125 L 2.28125 -5.296875 L 5.71875 -5.296875 L 5.71875 -4.265625 L 2.28125 -4.265625 L 2.28125 -1.015625 L 6.125 -1.015625 L 6.125 0 L 1.046875 0 L 1.046875 -9.46875 L 6.125 -9.46875 L 6.125 -8.453125 Z M 2.28125 -8.453125 "/></g></g><g style="fill:#ffffff;fill-opacity:1;"><g transform="translate(330.966443, 207.667332)"><path style="stroke:none" d="M 6.015625 0 L 3.765625 -3.859375 L 2.28125 -3.859375 L 2.28125 0 L 1.046875 0 L 1.046875 -9.453125 L 4.09375 -9.453125 C 4.8125 -9.453125 5.414062 -9.328125 5.90625 -9.078125 C 6.394531 -8.835938 6.757812 -8.507812 7 -8.09375 C 7.25 -7.675781 7.375 -7.203125 7.375 -6.671875 C 7.375 -6.023438 7.1875 -5.453125 6.8125 -4.953125 C 6.4375 -4.453125 5.875 -4.117188 5.125 -3.953125 L 7.5 0 Z M 2.28125 -4.859375 L 4.09375 -4.859375 C 4.757812 -4.859375 5.257812 -5.019531 5.59375 -5.34375 C 5.9375 -5.675781 6.109375 -6.117188 6.109375 -6.671875 C 6.109375 -7.234375 5.941406 -7.664062 5.609375 -7.96875 C 5.273438 -8.28125 4.769531 -8.4375 4.09375 -8.4375 L 2.28125 -8.4375 Z M 2.28125 -4.859375 "/></g></g><g clip-rule="nonzero" clip-path="url(#60f02334a0)"><path style=" stroke:none;fill-rule:nonzero;fill:#ffffff;fill-opacity:1;" d="M 107.84375 209.492188 C 107.734375 209.492188 107.628906 209.472656 107.527344 209.4375 L 73.507812 197.441406 C 73.128906 197.324219 72.910156 197.070312 72.847656 196.679688 C 72.789062 196.289062 72.917969 195.976562 73.242188 195.75 L 119.761719 159.75 L 60.644531 192.503906 C 60.367188 192.636719 60.089844 192.636719 59.8125 192.503906 L 36.035156 182.578125 C 35.84375 182.496094 35.695312 182.371094 35.585938 182.195312 C 35.480469 182.015625 35.433594 181.828125 35.449219 181.621094 C 35.460938 181.417969 35.527344 181.238281 35.652344 181.078125 C 35.777344 180.917969 35.9375 180.808594 36.128906 180.75 L 129.933594 151.976562 C 130.097656 151.925781 130.261719 151.925781 130.421875 151.976562 C 130.640625 152.03125 130.816406 152.152344 130.949219 152.332031 C 130.972656 152.367188 131 152.402344 131.027344 152.4375 C 131.113281 152.597656 131.152344 152.769531 131.140625 152.953125 C 131.148438 153.019531 131.148438 153.085938 131.140625 153.152344 C 131.144531 153.191406 131.144531 153.230469 131.140625 153.269531 L 108.734375 208.890625 C 108.660156 209.074219 108.542969 209.21875 108.382812 209.328125 C 108.21875 209.4375 108.039062 209.492188 107.84375 209.492188 Z M 75.804688 196.226562 L 107.296875 207.320312 L 128.011719 155.824219 Z M 39.210938 181.871094 L 60.117188 190.636719 L 121.714844 156.503906 Z M 39.210938 181.871094 "/></g><g clip-rule="nonzero" clip-path="url(#542e932ca2)"><path style=" stroke:none;fill-rule:nonzero;fill:#ffffff;fill-opacity:1;" d="M 67.277344 224.226562 C 67.050781 224.230469 66.84375 224.164062 66.664062 224.023438 C 66.484375 223.882812 66.371094 223.699219 66.320312 223.476562 L 59.246094 191.917969 C 59.199219 191.664062 59.242188 191.429688 59.386719 191.214844 C 59.527344 191 59.722656 190.863281 59.976562 190.804688 C 60.226562 190.746094 60.464844 190.785156 60.683594 190.921875 C 60.90625 191.054688 61.046875 191.25 61.113281 191.5 L 67.316406 219.132812 L 72.894531 196.359375 C 72.960938 196.105469 73.105469 195.910156 73.332031 195.773438 C 73.558594 195.636719 73.796875 195.597656 74.054688 195.664062 C 74.308594 195.726562 74.507812 195.871094 74.644531 196.097656 C 74.78125 196.324219 74.816406 196.5625 74.753906 196.820312 L 68.207031 223.507812 C 68.152344 223.71875 68.039062 223.890625 67.863281 224.023438 C 67.691406 224.160156 67.496094 224.226562 67.277344 224.226562 Z M 67.277344 224.226562 "/></g><g clip-rule="nonzero" clip-path="url(#f6dc46d260)"><path style=" stroke:none;fill-rule:nonzero;fill:#ffffff;fill-opacity:1;" d="M 67.277344 224.226562 C 67.011719 224.226562 66.785156 224.132812 66.597656 223.949219 C 66.414062 223.761719 66.320312 223.535156 66.320312 223.273438 C 66.320312 223.007812 66.414062 222.785156 66.597656 222.597656 L 87.914062 201.070312 C 88.101562 200.882812 88.328125 200.789062 88.59375 200.789062 C 88.859375 200.789062 89.085938 200.882812 89.273438 201.070312 C 89.460938 201.257812 89.550781 201.480469 89.550781 201.746094 C 89.550781 202.007812 89.460938 202.234375 89.273438 202.421875 L 67.996094 223.949219 C 67.796875 224.144531 67.558594 224.238281 67.277344 224.226562 Z M 67.277344 224.226562 "/></g></g></svg>